
<svg
  id="Layer_1"
  data-name="Layer 1"
  xmlns="http://www.w3.org/2000/svg"
  viewBox="0 0 279 260.41"
>
  <style>
    .cls-1,
    .cls-15,
    .cls-3 {
      fill: none;
    }

    .cls-1 {
      stroke: #c27428;
    }

    .cls-1,
    .cls-15,
    .cls-3,
    .cls-8,
    .cls-9 {
      stroke-miterlimit: 10;
    }

    .cls-2 {
      fill: #613a14;
    }

    .cls-3 {
      stroke: #91663b;
      stroke-width: 3px;
    }

    .cls-4 {
      fill: #91663b;
    }

    .cls-5 {
      fill: #c2874f;
    }

    .cls-6,
    .cls-8,
    .cls-9 {
      fill: #6a1900;
    }

    .cls-7 {
      fill: #c1272d;
    }

    .cls-15,
    .cls-8,
    .cls-9 {
      stroke: #000;
    }

    .cls-9 {
      stroke-width: 2px;
    }

    .cls-10 {
      fill: #534741;
    }

    .cls-11 {
      fill: #761600;
    }

    .cls-12 {
      fill: #c69c6d;
    }

    .cls-13 {
      fill: #d79c62;
    }

    .cls-14 {
      fill: #42210b;
    }

    .cls-15 {
      stroke-width: 0.5px;
    }

    .cls-16 {
      fill: #a67c52;
    }

    .cls-17 {
      fill: #0071bc;
    }

    .cls-18 {
      fill: #29abe2;
    }

    .cls-19 {
      fill: #000d88;
    }
  </style>
  <g className="gallows-bottom" visibility="hidden">
    <circle className="cls-1" cx="195" cy="200.49" r="4.31" />
    <circle className="cls-1" cx="83.84" cy="200.49" r="4.31" />
    <rect className="cls-2" y="197.71" width="83.07" height="4.7" />
    <rect
      className="cls-2"
      x="195.93"
      y="197.71"
      width="83.07"
      height="4.7"
    />
    <rect
      className="left-board cls-2"
      x="84.64"
      y="197.71"
      width="53.29"
      height="4.7"
    />
    <rect
      className="right-board cls-2"
      x="141.07"
      y="197.71"
      width="53.29"
      height="4.7"
    />
    <rect className="cls-2" x="9.4" y="201.57" width="14.39" height="58.83" />
    <rect
      className="cls-2"
      x="250.5"
      y="201.82"
      width="14.39"
      height="58.59"
    />
  </g>
  <g className="gallows-top">
    <path
      className="gallows1 cls-2"
      d="M40.36,223.92H26V28.48a1.17,1.17,0,0,1,1.16-1.17H44.78a1.17,1.17,0,0,1,1.16,1.21Z"
      transform="translate(-9.93 -25.53)"
      visibility="hidden"
    />
    <path
      className="gallows2 cls-2"
      d="M99.79,41.42Q71.53,61.25,43.26,81.08l.33-11.41Q61.17,55.39,78.73,41.09h0Z"
      transform="translate(-9.93 -25.53)"
      visibility="hidden"
    />
    <path
      className="gallows3 cls-2"
      d="M44.44,42l.35-12.2,136.82-2.32a1.31,1.31,0,0,1,1.33,1.31V42.89a1.3,1.3,0,0,1-1.32,1.29Z"
      transform="translate(-9.93 -25.53)"
      visibility="hidden"
    />
  </g>
  <g className="bag" visibility="hidden">
    <path
      className="cls-6"
      d="M255.85,184.65V212.3a7.33,7.33,0,0,1-7.3,7.3h-5.88a7.34,7.34,0,0,0,7.31-7.3V184.65a7.34,7.34,0,0,0-7.31-7.3h5.88A7.33,7.33,0,0,1,255.85,184.65Z"
      transform="translate(-9.93 -25.53)"
    />
    <rect
      className="cls-7"
      x="208.31"
      y="151.82"
      width="31.74"
      height="42.26"
      rx="7.3"
    />
    <line className="cls-8" x1="221.71" y1="151.82" x2="221.71" y2="133.65" />
    <line className="cls-8" x1="231.5" y1="151.82" x2="231.5" y2="133.65" />
    <line className="cls-9" x1="218.76" y1="132.68" x2="234.24" y2="132.68" />
    <path
      className="cls-10"
      d="M246.38,221.42c0,1-.47,1.82-1,1.82a.87.87,0,0,1-.74-.55,2.76,2.76,0,0,1,0-2.54.87.87,0,0,1,.74-.55C245.91,219.6,246.38,220.42,246.38,221.42Z"
      transform="translate(-9.93 -25.53)"
    />
    <path
      d="M245.33,223.24h-1.49c-.58,0-1.05-.82-1.05-1.82s.47-1.82,1.05-1.82h1.49a.87.87,0,0,0-.74.55,2.76,2.76,0,0,0,0,2.54A.87.87,0,0,0,245.33,223.24Z"
      transform="translate(-9.93 -25.53)"
    />
    <path
      className="cls-10"
      d="M231.1,221.42c0,1-.47,1.82-1,1.82a.87.87,0,0,1-.74-.55,2.76,2.76,0,0,1,0-2.54.87.87,0,0,1,.74-.55C230.63,219.6,231.1,220.42,231.1,221.42Z"
      transform="translate(-9.93 -25.53)"
    />
    <path
      d="M230.05,223.24h-1.49c-.58,0-1.05-.82-1.05-1.82s.47-1.82,1.05-1.82h1.49a.87.87,0,0,0-.74.55,2.76,2.76,0,0,0,0,2.54A.87.87,0,0,0,230.05,223.24Z"
      transform="translate(-9.93 -25.53)"
    />
  </g>
  <g className="body" visibility="hidden">
    <g className="tshirt">
      <path
        className="cls-11"
        d="M133.71,148.14a10.63,10.63,0,0,1-1.57.1l-6.8-.35c-1-.09-1.59-.17-1.59-.17s1-3.2,1.92-3.42,6.08-1.48,7.57.54A7.55,7.55,0,0,1,133.71,148.14Z"
        transform="translate(-9.93 -25.53)"
      />
      <path
        className="cls-11"
        d="M174.16,147.72a28.54,28.54,0,0,1-9.94.53,7.52,7.52,0,0,1,.46-3.41c1.49-2,6.61-.74,7.57-.54S174.16,147.72,174.16,147.72Z"
        transform="translate(-9.93 -25.53)"
      />
      <path
        className="cls-7"
        d="M174.16,147.72s-.95-3.2-1.91-3.42-6.08-1.48-7.57.54a7.52,7.52,0,0,0-.46,3.41c0,6.2,1.63,18.23,1.63,18.23-.75.3-1.5.57-2.25.8-11.79,3.75-24.75,1-29.47-.26-1.18-.32-1.85-.54-1.85-.54s.55-4.39,1-9.23c.15-1.68.28-3.42.36-5s.12-2.9.11-4.08a7.55,7.55,0,0,0-.47-3.3c-1.49-2-6.62-.74-7.57-.54s-1.92,3.42-1.92,3.42c-.64-2.46.74-13.85,1.07-15.45.27-1.4,10.11-3.94,12.23-3.69.23,0,.45.27.78.69s.66,1,1.17,1.77c.71,1.15,4.16,2.94,9.41,2.94s9.73-2.31,11.05-5a2.07,2.07,0,0,0,.2-.46c4.42,0,13.14,2.21,13.44,3.75S174.8,145.26,174.16,147.72Z"
        transform="translate(-9.93 -25.53)"
      />
      <path
        className="cls-12"
        d="M159.46,129c-1.32,2.69-5.93,5-11.05,5s-8.7-1.79-9.41-2.94c-.51-.8-.89-1.38-1.17-1.77,2.35,0,7.44-.42,7.84-2.32a7.32,7.32,0,0,0,3.18.74,6.71,6.71,0,0,0,2.83-.61C152.42,129.27,157.52,129.32,159.46,129Z"
        transform="translate(-9.93 -25.53)"
      />
      <path
        className="loop2 cls-3"
        d="M149.11,90.35c.25,7.54,1.5,10.33,2.38,13.72,1.54,6,3.64,14.82,2.69,19-1.92,8.38-10.14,6.68-11.79.26-1.75-6.83,3.3-16.33,6.72-32.94l.09-.18,1.34-56.25"
        transform="translate(-9.93 -25.53)"
        visibility="hidden"
      />
    </g>
    <g className="face">
      <path
        className="cls-13"
        d="M158,113.05a23.41,23.41,0,0,1-.29,3.57c-.65,4.41-2.58,8.86-6,10.46a6.71,6.71,0,0,1-2.83.61,7.32,7.32,0,0,1-3.18-.74c-3.62-1.71-6.24-6.13-7.2-10.48a16.16,16.16,0,0,1-.42-3.58,8.14,8.14,0,0,1,1.39-5,18.36,18.36,0,0,0,7.31,1.94c.45,0,.91.05,1.38.05a20.36,20.36,0,0,0,3.54-.31,17,17,0,0,0,5.27-1.74A10.49,10.49,0,0,1,158,113.05Z"
        transform="translate(-9.93 -25.53)"
      />
      <path
        className="cls-14"
        d="M158.85,106.56a6.33,6.33,0,0,1,1.89,4.66,5.82,5.82,0,0,1-3,5.4,23.41,23.41,0,0,0,.29-3.57,10.49,10.49,0,0,0-1.05-5.2,17,17,0,0,1-5.27,1.74,20.36,20.36,0,0,1-3.54.31c-.47,0-.93,0-1.38-.05a18.36,18.36,0,0,1-7.31-1.94,8.14,8.14,0,0,0-1.39,5,16.16,16.16,0,0,0,.42,3.58,6.63,6.63,0,0,1-3.38-5.94,6.94,6.94,0,0,1,1.64-4.56,5.81,5.81,0,0,1,1.21-1.07,5.23,5.23,0,0,1-.08-1.33c.19-2.43,1.88-4.92,7.66-3.06a7.48,7.48,0,0,0,3.95.35c3.22-.58,5.76-1.79,6.95-3.28,0,.13,0,.25,0,.38a5.22,5.22,0,0,1-2.21,4.2h.33a8.71,8.71,0,0,0,6.87-2.85,5.54,5.54,0,0,1,.33,1.9A6.93,6.93,0,0,1,158.85,106.56Z"
        transform="translate(-9.93 -25.53)"
      />
      <g className="alive">
        <path
          className="cls-15"
          d="M141.82,114.23a3.26,3.26,0,0,1,3.93,0"
          transform="translate(-9.93 -25.53)"
        />
        <circle cx="134.12" cy="90.01" r="1.09" />
        <path
          className="cls-15"
          d="M153.91,114.23a3.26,3.26,0,0,0-3.93,0"
          transform="translate(-9.93 -25.53)"
        />
        <circle cx="141.75" cy="90.01" r="1.09" />
        <path
          className="cls-15"
          d="M144.79,121a6.91,6.91,0,0,0,6.48,0"
          transform="translate(-9.93 -25.53)"
        />
      </g>
      <g className="dead" visibility="hidden">
        <path
          className="cls-15"
          d="M141.92,113.91a9.93,9.93,0,0,1,3.22,3.2"
          transform="translate(-9.93 -25.53)"
        />
        <path
          className="cls-15"
          d="M142.33,117.11c.63-1.57,3.38-3.74,3.38-3.74"
          transform="translate(-9.93 -25.53)"
        />
        <path
          className="cls-15"
          d="M151.1,113.82a14.55,14.55,0,0,1,3.15,3.56"
          transform="translate(-9.93 -25.53)"
        />
        <path
          className="cls-15"
          d="M151.44,117.38a12.17,12.17,0,0,1,3-3.47"
          transform="translate(-9.93 -25.53)"
        />
        <path
          className="cls-7"
          d="M148.61,121.42s-1.82,3.78-3,3.46.31-2.63.31-2.63A15.76,15.76,0,0,1,148.61,121.42Z"
          transform="translate(-9.93 -25.53)"
        />
        <path
          className="cls-15"
          d="M145.71,122.25c3.25-1.24,6-1.6,7,.25"
          transform="translate(-9.93 -25.53)"
        />
      </g>
    </g>
    <g className="legs">
      <path
        className="cls-16"
        d="M165.76,192.72a27.24,27.24,0,0,1-8.57-.48c-2.24-.43-3.92-.9-3.92-.9,0-8.43-1-9.83-1-9.83a6.24,6.24,0,0,1-4.42,0,32.14,32.14,0,0,0,.78,10.68s-1.78.61-4.2,1.24a35.47,35.47,0,0,1-8.34,1.33c-3.21,0-5.47-1-4.32-4.42,2.93-8.73.74-22.87.74-22.87a3.84,3.84,0,0,0,1.61-.45c4.72,1.25,17.68,4,29.47.26a18.76,18.76,0,0,0,2,.41s-1.1,11.71,2.69,20.28C169.65,191,168.21,192.28,165.76,192.72Z"
        transform="translate(-9.93 -25.53)"
      />
      <path
        className="cls-12"
        d="M144.37,215.61a2.76,2.76,0,0,1-3,3.49c-1.71-.08-7.36-.53-3.79-3.7.3-.31.34-.88.34-2.76,0-5.14-1.3-13.4-1.82-17.82a34.08,34.08,0,0,0,8.34-1.39c.68,5.5.38,5.06-.64,11C143.13,208.33,144.15,213.38,144.37,215.61Z"
        transform="translate(-9.93 -25.53)"
      />
      <path
        className="lshoe cls-11"
        d="M145.2,222.45c-1,.69-4,.79-7.67.79l-3.51,0c-5.06,0-9.39-.23-9.48-1.36-.16-1.88.45-3.7,1.93-3.87,6.14-.74,7.14-2.59,9.63-2.81a2.86,2.86,0,0,1,1.48.22c1.19.5,1.61,1.77,3.32,1.85,2.6.13,3.18-.94,3.47-1.64.15-.37.21-.65.43-.65,1.27,0,.27.08.4,2.68S146.5,221.55,145.2,222.45Z"
        transform="translate(-9.93 -25.53)"
      />
      <path
        className="cls-12"
        d="M163.58,212.64a11.48,11.48,0,0,0,1.48,4.9c1.84,2.55-2.76.94-4.47,1-2.6.13-3.29-.86-3.45-2.95.22-2.23,1.24-7.28.56-11.21-1-5.61-1.08-7.29-.51-12.16a27.24,27.24,0,0,0,8.57.48C165.15,197.55,163.58,207.78,163.58,212.64Z"
        transform="translate(-9.93 -25.53)"
      />
      <path
        className="rshoe cls-11"
        d="M156.3,222.45c1,.69,4,.79,7.67.79l3.51,0c5.06,0,9.39-.23,9.48-1.36.16-1.88-.45-3.7-1.93-3.87-6.14-.74-7.14-2.59-9.63-2.81a2.86,2.86,0,0,0-1.48.22c-1.19.5-1.61,1.77-3.32,1.85-2.6.13-3.18-.94-3.46-1.64-.16-.37-.22-.65-.44-.65-1.27,0-.27.08-.4,2.68S155,221.55,156.3,222.45Z"
        transform="translate(-9.93 -25.53)"
      />
    </g>
    <g className="map">
      <polygon
        className="cls-17"
        points="135.19 146.15 126.97 142.2 123.76 111.65 133.01 118.25 135.19 146.15"
      />
      <polygon
        className="cls-18"
        points="144.2 117.53 143.51 146.15 135.19 146.15 133.01 118.25 144.2 117.53"
      />
      <polygon
        className="cls-17"
        points="154.29 111.83 151.15 144.22 143.51 146.15 144.2 117.53 154.29 111.83"
      />
      <path
        className="cls-19"
        d="M136.55,144.9a28.16,28.16,0,0,1,1.09,6c0,.1.24.12.25,0a12.19,12.19,0,0,0-1.21-6.26l-.23.05,1.42,1.61.69.8a1.91,1.91,0,0,0,.62.51c.81.4,1.35-.4,1.79-.94.23-.29.52-.65.93-.6l-.12-.09v4.88c0,.11.25.12.25,0V146c0-.06-.08-.08-.12-.08-.74-.08-1.14.69-1.55,1.16a1.05,1.05,0,0,1-.8.49,1.13,1.13,0,0,1-.71-.46c-.22-.23-.43-.48-.64-.72l-1.54-1.76s-.28-.06-.23.05a12,12,0,0,1,1.2,6.22h.25a27.93,27.93,0,0,0-1.1-6.08c0-.09-.27-.08-.24,0Z"
        transform="translate(-9.93 -25.53)"
      />
      <path
        className="cls-19"
        d="M145.83,151.31a14.57,14.57,0,0,1,1.93-3.94l.29-.4c.1-.14.25-.39.44-.37s.28.19.36.31.21.3.31.46a13.27,13.27,0,0,1,1.75,4.32c0,.09.27.08.24,0a13.32,13.32,0,0,0-1.79-4.38c-.17-.27-.35-.65-.65-.79a.64.64,0,0,0-.79.28,13.63,13.63,0,0,0-1.29,2,15.06,15.06,0,0,0-1,2.49c0,.11.21.15.24.05Z"
        transform="translate(-9.93 -25.53)"
      />
      <path
        className="cls-19"
        d="M146.7,149.61H150c.15,0,.16-.16,0-.16h-3.33c-.16,0-.17.16,0,.16Z"
        transform="translate(-9.93 -25.53)"
      />
      <path
        className="cls-19"
        d="M156.16,146.81v5.41c0,.11.25.12.25,0v-5.42c0-.11-.25-.12-.25,0Z"
        transform="translate(-9.93 -25.53)"
      />
      <path
        className="cls-19"
        d="M156.55,146.62a4.18,4.18,0,0,1,2.89-.51l-.09-.08a3.46,3.46,0,0,1-2.88,2.84c-.17,0-.08.17.06.16a3.64,3.64,0,0,0,3.07-3s-.06-.08-.09-.08a4.61,4.61,0,0,0-3.13.53c-.13.08.09.18.17.13Z"
        transform="translate(-9.93 -25.53)"
      />
    </g>
    <g className="hands">
      <path
        className="lhand-bent cls-12"
        d="M131.92,156.42c-1.69.14-5.52.63-6.16-.33-.78-1.21-.72-3.73-.33-8.21.09-1.08.2-2.27.33-3.59,1-.21,6-1.46,7.48.56,0,0,.32,1-.46,3.63-.42,1.36-2.64,2.77-1.92,3.11a9.07,9.07,0,0,0,3.36.38c.81-.16,1.19-1.28,3.09-1.15a3.29,3.29,0,0,1,2.93,3.42,3.21,3.21,0,0,1-2.93,3.42c-.56,0-1.88-1.1-2.4-1.27A10.34,10.34,0,0,0,131.92,156.42Z"
        transform="translate(-9.93 -25.53)"
      />
      <path
        className="rhand-bent cls-12"
        d="M167.3,157.66c1.68.26,4.53-.61,5.17-1.57.78-1.21.72-3.73.33-8.21-.1-1.08-.43-2.26-.55-3.58-1.34-.33-5.73-1.24-7.25.2a8.45,8.45,0,0,0,.45,4c.41,1.36,2.88,3.4,2.16,3.75a13,13,0,0,1-4,.73c-.81-.16-2-1.43-3.92-1.29-1.61.12-1.51,2-1.51,3.86s1,3,2.61,3c.56,0,1.87-1,2.39-1.15A16.08,16.08,0,0,1,167.3,157.66Z"
        transform="translate(-9.93 -25.53)"
      />
      <path
        className="lhand-str cls-12"
        d="M126.74,164.4c-.12-1.58-1-5.19-1-7s.74-2.31.41-4.32a77.19,77.19,0,0,1-.34-8.8c1-.21,6-1.46,7.48.56,0,0-.29,1.75-.54,2.64-.4,1.38-1.22,4.22-1.71,5.37-.31.72.12,4.83,0,6-.24,2.22-2,7.67-.79,9.18s.78,6.09-.22,7.69c-.5.8-1.95-3.1-2.35-4a17.06,17.06,0,0,1-.75-3C126.73,167.79,126.85,166,126.74,164.4Z"
        transform="translate(-9.93 -25.53)"
        visibility="hidden"
      />
      <path
        className="rhand-str cls-12"
        d="M171.55,164.4c.11-1.58,1-5.19,1-7s-.75-2.31-.41-4.32a79.55,79.55,0,0,0,.06-8.75c-1-.2-5.44-1.33-7.25.2,0,0,.33,2.06.59,2.95.4,1.38,1.22,4.22,1.71,5.37.3.72-.13,4.83,0,6,.23,2.22,2,7.67.78,9.18s-.77,6.09.22,7.69c.5.8,1.95-3.1,2.35-4a16.14,16.14,0,0,0,.76-3C171.55,167.79,171.43,166,171.55,164.4Z"
        transform="translate(-9.93 -25.53)"
        visibility="hidden"
      />
    </g>
  </g>
  <g className="rope" visibility="hidden">
    <path
      className="loop1 cls-3"
      d="M149.29,92.85c2.59,6.46,3.62,7.08,6.41,12.49,4.37,8.5,3.42,18.93.59,22.35S146.87,131,143,128.74c-10.26-5.88,1.92-24.79,6.33-35.89l.09-.19,1.16-58.74"
      transform="translate(-9.93 -25.53)"
    />
    <path
      className="cls-4"
      d="M150.91,44h.29a3.48,3.48,0,0,1-2.78,2,3.56,3.56,0,0,1-2.83-2,16,16,0,0,1-1.89-8.09,16.47,16.47,0,0,1,1.65-7.63c.81-1.52,1.9-2.45,3.07-2.45s2.21.88,3,2.35H151a2.05,2.05,0,0,0-1.47-.75,2,2,0,0,0-1.5.8C146.82,29.49,146,32.47,146,36s.89,6.65,2.16,8a2,2,0,0,0,1.41.69A2,2,0,0,0,150.91,44Z"
      transform="translate(-9.93 -25.53)"
    />
    <path
      className="cls-5"
      d="M150,44h.94a2,2,0,0,1-1.36.65,2,2,0,0,1-1.41-.69c-1.27-1.33-2.16-4.39-2.16-8s.84-6.46,2.07-7.82a2,2,0,0,1,1.5-.8,2.05,2.05,0,0,1,1.47.75l-1.09,0h0c-1.67.19-3.06,3.65-3.06,7.91S148.25,44,150,44Z"
      transform="translate(-9.93 -25.53)"
    />
    <path
      className="cls-4"
      d="M153.67,44H154a3.48,3.48,0,0,1-2.78,2,3.58,3.58,0,0,1-2.83-2,16,16,0,0,1-1.88-8.09,16.48,16.48,0,0,1,1.64-7.63c.82-1.52,1.9-2.45,3.07-2.45s2.21.88,3,2.35h-.4a2.09,2.09,0,0,0-1.48-.75,2,2,0,0,0-1.5.8c-1.22,1.36-2.07,4.34-2.07,7.82s.89,6.65,2.16,8a1.78,1.78,0,0,0,2.78,0Z"
      transform="translate(-9.93 -25.53)"
    />
    <path
      className="cls-5"
      d="M152.73,44h.94a1.78,1.78,0,0,1-2.78,0c-1.27-1.33-2.16-4.39-2.16-8s.85-6.46,2.07-7.82a2,2,0,0,1,1.5-.8,2.09,2.09,0,0,1,1.48.75l-1.1,0h0c-1.66.19-3.06,3.65-3.06,7.91S151,44,152.73,44Z"
      transform="translate(-9.93 -25.53)"
    />
    <path
      className="cls-5"
      d="M155.65,43.76h.94a2,2,0,0,1-1.36.64,2,2,0,0,1-1.41-.69c-1.27-1.33-2.17-4.38-2.17-8s.85-6.46,2.07-7.83a2.06,2.06,0,0,1,1.51-.79,2,2,0,0,1,1.47.75h-1.13c-1.66.19-3,3.66-3,7.92S153.93,43.76,155.65,43.76Z"
      transform="translate(-9.93 -25.53)"
    />
    <path
      className="cls-4"
      d="M156.59,43.77h.28a3.48,3.48,0,0,1-2.77,2,3.57,3.57,0,0,1-2.84-2,16.06,16.06,0,0,1-1.88-8.09A16.38,16.38,0,0,1,151,28c.81-1.52,1.89-2.44,3.07-2.44s2.21.87,3,2.35h-.41a2,2,0,0,0-1.47-.75,2.06,2.06,0,0,0-1.51.79c-1.22,1.37-2.07,4.35-2.07,7.83s.9,6.64,2.17,8a2,2,0,0,0,1.41.69A2,2,0,0,0,156.59,43.77Z"
      transform="translate(-9.93 -25.53)"
    />
  </g>
</svg>
